<svg width="176" height="48" viewBox="0 0 176 48" fill="none" xmlns="http://www.w3.org/2000/svg">
<rect x="1" y="1" width="46" height="46" rx="23" fill="#23262F"/>
<g filter="url(#filter0_d_1402_6802)">
<path d="M15.8182 18C15.8182 16.9715 15.8182 16.4572 16.1377 16.1377C16.4572 15.8182 16.9715 15.8182 18 15.8182H21.2727C22.3012 15.8182 22.8155 15.8182 23.135 16.1377C23.4545 16.4572 23.4545 16.9715 23.4545 18V21.2727C23.4545 22.3012 23.4545 22.8155 23.135 23.135C22.8155 23.4545 22.3012 23.4545 21.2727 23.4545H18C16.9715 23.4545 16.4572 23.4545 16.1377 23.135C15.8182 22.8155 15.8182 22.3012 15.8182 21.2727V18Z" fill="url(#paint0_linear_1402_6802)"/>
<path d="M24.5455 26.7273C24.5455 25.6988 24.5455 25.1845 24.865 24.865C25.1845 24.5455 25.6988 24.5455 26.7273 24.5455H30C31.0285 24.5455 31.5428 24.5455 31.8623 24.865C32.1818 25.1845 32.1818 25.6988 32.1818 26.7273V30C32.1818 31.0285 32.1818 31.5428 31.8623 31.8623C31.5428 32.1818 31.0285 32.1818 30 32.1818H26.7273C25.6988 32.1818 25.1845 32.1818 24.865 31.8623C24.5455 31.5428 24.5455 31.0285 24.5455 30V26.7273Z" fill="url(#paint1_linear_1402_6802)"/>
<path d="M24.5455 16.7018C24.5455 15.4282 24.5455 14.7913 24.9411 14.3957C25.3368 14 25.9736 14 27.2473 14H31.2982C32.5718 14 33.2087 14 33.6043 14.3957C34 14.7913 34 15.4282 34 16.7018V20.7527C34 22.0264 34 22.6632 33.6043 23.0589C33.2087 23.4545 32.5718 23.4545 31.2982 23.4545H27.2473C25.9736 23.4545 25.3368 23.4545 24.9411 23.0589C24.5455 22.6632 24.5455 22.0264 24.5455 20.7527V16.7018Z" fill="url(#paint2_linear_1402_6802)"/>
<path d="M14 27.2473C14 25.9736 14 25.3368 14.3957 24.9411C14.7913 24.5455 15.4282 24.5455 16.7018 24.5455H20.7527C22.0264 24.5455 22.6632 24.5455 23.0589 24.9411C23.4545 25.3368 23.4545 25.9736 23.4545 27.2473V31.2982C23.4545 32.5718 23.4545 33.2087 23.0589 33.6043C22.6632 34 22.0264 34 20.7527 34H16.7018C15.4282 34 14.7913 34 14.3957 33.6043C14 33.2087 14 32.5718 14 31.2982V27.2473Z" fill="url(#paint3_linear_1402_6802)"/>
</g>
<rect x="1" y="1" width="46" height="46" rx="23" stroke="url(#paint4_linear_1402_6802)" stroke-width="2"/>
<path d="M73.8 17H76.1V31H74.3L67.7 21.5V31H65.4V17H67.2L73.8 26.5V17ZM90.5961 29.16C89.1961 30.56 87.4828 31.26 85.4561 31.26C83.4294 31.26 81.7094 30.56 80.2961 29.16C78.8961 27.7467 78.1961 26.0267 78.1961 24C78.1961 21.9733 78.8961 20.26 80.2961 18.86C81.7094 17.4467 83.4294 16.74 85.4561 16.74C87.4828 16.74 89.1961 17.4467 90.5961 18.86C92.0094 20.26 92.7161 21.9733 92.7161 24C92.7161 26.0267 92.0094 27.7467 90.5961 29.16ZM81.9161 27.6C82.8761 28.5467 84.0561 29.02 85.4561 29.02C86.8561 29.02 88.0294 28.5467 88.9761 27.6C89.9361 26.64 90.4161 25.44 90.4161 24C90.4161 22.56 89.9361 21.3667 88.9761 20.42C88.0294 19.46 86.8561 18.98 85.4561 18.98C84.0561 18.98 82.8761 19.46 81.9161 20.42C80.9694 21.3667 80.4961 22.56 80.4961 24C80.4961 25.44 80.9694 26.64 81.9161 27.6ZM106.514 29.16C105.114 30.56 103.401 31.26 101.374 31.26C99.3474 31.26 97.6274 30.56 96.2141 29.16C94.8141 27.7467 94.1141 26.0267 94.1141 24C94.1141 21.9733 94.8141 20.26 96.2141 18.86C97.6274 17.4467 99.3474 16.74 101.374 16.74C103.401 16.74 105.114 17.4467 106.514 18.86C107.927 20.26 108.634 21.9733 108.634 24C108.634 26.0267 107.927 27.7467 106.514 29.16ZM97.8341 27.6C98.7941 28.5467 99.9741 29.02 101.374 29.02C102.774 29.02 103.947 28.5467 104.894 27.6C105.854 26.64 106.334 25.44 106.334 24C106.334 22.56 105.854 21.3667 104.894 20.42C103.947 19.46 102.774 18.98 101.374 18.98C99.9741 18.98 98.7941 19.46 97.8341 20.42C96.8874 21.3667 96.4141 22.56 96.4141 24C96.4141 25.44 96.8874 26.64 97.8341 27.6ZM124.132 17V31H121.832V21.02L117.572 28.06H117.292L113.032 21V31H110.732V17H113.212L117.432 24L121.672 17H124.132ZM135.163 23.74C135.777 24.06 136.257 24.5 136.603 25.06C136.95 25.62 137.123 26.2667 137.123 27C137.123 28.1467 136.717 29.1 135.903 29.86C135.09 30.62 134.097 31 132.923 31H126.923V17H132.483C133.63 17 134.597 17.3733 135.383 18.12C136.183 18.8533 136.583 19.7733 136.583 20.88C136.583 22.0933 136.11 23.0467 135.163 23.74ZM132.483 19.16H129.223V22.84H132.483C132.99 22.84 133.417 22.6667 133.763 22.32C134.11 21.96 134.283 21.52 134.283 21C134.283 20.48 134.11 20.0467 133.763 19.7C133.417 19.34 132.99 19.16 132.483 19.16ZM132.923 28.84C133.457 28.84 133.903 28.6533 134.263 28.28C134.637 27.8933 134.823 27.4267 134.823 26.88C134.823 26.3333 134.637 25.8733 134.263 25.5C133.903 25.1133 133.457 24.92 132.923 24.92H129.223V28.84H132.923ZM148.65 31L147.35 27.56H140.71L139.41 31H137.93L143.31 17H144.75L150.13 31H148.65ZM141.21 26.24H146.85L144.03 18.74L141.21 26.24ZM157.328 17C159.235 17 160.808 17.68 162.048 19.04C163.301 20.3867 163.928 22.04 163.928 24C163.928 25.96 163.301 27.62 162.048 28.98C160.808 30.3267 159.235 31 157.328 31H151.928V17H157.328ZM157.328 29.68C158.861 29.68 160.115 29.1333 161.088 28.04C162.075 26.9467 162.568 25.6 162.568 24C162.568 22.4 162.075 21.0533 161.088 19.96C160.115 18.8667 158.861 18.32 157.328 18.32H153.328V29.68H157.328ZM170.215 31.24C168.935 31.24 167.835 30.94 166.915 30.34C166.008 29.7267 165.375 28.8867 165.015 27.82L166.215 27.12C166.468 27.9867 166.935 28.6667 167.615 29.16C168.295 29.64 169.168 29.88 170.235 29.88C171.275 29.88 172.082 29.6533 172.655 29.2C173.242 28.7333 173.535 28.12 173.535 27.36C173.535 26.6267 173.268 26.0733 172.735 25.7C172.202 25.3267 171.322 24.94 170.095 24.54C168.642 24.06 167.682 23.6733 167.215 23.38C166.148 22.74 165.615 21.8133 165.615 20.6C165.615 19.4133 166.028 18.48 166.855 17.8C167.682 17.1067 168.702 16.76 169.915 16.76C171.008 16.76 171.955 17.0467 172.755 17.62C173.555 18.18 174.148 18.9 174.535 19.78L173.355 20.44C172.715 18.8933 171.568 18.12 169.915 18.12C169.048 18.12 168.348 18.3333 167.815 18.76C167.282 19.1867 167.015 19.78 167.015 20.54C167.015 21.2333 167.255 21.7533 167.735 22.1C168.215 22.4467 169.008 22.8 170.115 23.16C170.622 23.3333 170.982 23.46 171.195 23.54C171.422 23.6067 171.742 23.7267 172.155 23.9C172.582 24.06 172.895 24.2067 173.095 24.34C173.295 24.46 173.535 24.6333 173.815 24.86C174.108 25.0733 174.315 25.2933 174.435 25.52C174.568 25.7333 174.682 26 174.775 26.32C174.882 26.6267 174.935 26.96 174.935 27.32C174.935 28.5067 174.502 29.46 173.635 30.18C172.768 30.8867 171.628 31.24 170.215 31.24Z" fill="#23262F"/>
<defs>
<filter id="filter0_d_1402_6802" x="11.5866" y="12.7933" width="24.8267" height="24.8267" filterUnits="userSpaceOnUse" color-interpolation-filters="sRGB">
<feFlood flood-opacity="0" result="BackgroundImageFix"/>
<feColorMatrix in="SourceAlpha" type="matrix" values="0 0 0 0 0 0 0 0 0 0 0 0 0 0 0 0 0 0 127 0" result="hardAlpha"/>
<feOffset dy="1.20668"/>
<feGaussianBlur stdDeviation="1.20668"/>
<feColorMatrix type="matrix" values="0 0 0 0 0 0 0 0 0 0 0 0 0 0 0 0 0 0 0.15 0"/>
<feBlend mode="normal" in2="BackgroundImageFix" result="effect1_dropShadow_1402_6802"/>
<feBlend mode="normal" in="SourceGraphic" in2="effect1_dropShadow_1402_6802" result="shape"/>
</filter>
<linearGradient id="paint0_linear_1402_6802" x1="29.9694" y1="15.1873" x2="16.7234" y2="29.6048" gradientUnits="userSpaceOnUse">
<stop stop-color="white"/>
<stop offset="1" stop-color="#FCFCFD" stop-opacity="0.75"/>
</linearGradient>
<linearGradient id="paint1_linear_1402_6802" x1="29.9694" y1="15.1873" x2="16.7234" y2="29.6048" gradientUnits="userSpaceOnUse">
<stop stop-color="white"/>
<stop offset="1" stop-color="#FCFCFD" stop-opacity="0.75"/>
</linearGradient>
<linearGradient id="paint2_linear_1402_6802" x1="29.9694" y1="15.1873" x2="16.7234" y2="29.6048" gradientUnits="userSpaceOnUse">
<stop stop-color="white"/>
<stop offset="1" stop-color="#FCFCFD" stop-opacity="0.75"/>
</linearGradient>
<linearGradient id="paint3_linear_1402_6802" x1="29.9694" y1="15.1873" x2="16.7234" y2="29.6048" gradientUnits="userSpaceOnUse">
<stop stop-color="white"/>
<stop offset="1" stop-color="#FCFCFD" stop-opacity="0.75"/>
</linearGradient>
<linearGradient id="paint4_linear_1402_6802" x1="24" y1="0" x2="24" y2="48" gradientUnits="userSpaceOnUse">
<stop stop-color="#818181" stop-opacity="0.27"/>
<stop offset="1" stop-opacity="0.42"/>
</linearGradient>
</defs>
</svg>
