<svg width="139" height="33" viewBox="0 0 139 33" fill="none" xmlns="http://www.w3.org/2000/svg">
<path d="M6.00679 6.16837C7.71014 6.16837 9.09097 4.78753 9.09097 3.08418C9.09097 1.38084 7.71014 0 6.00679 0C4.30344 0 2.92261 1.38084 2.92261 3.08418C2.92261 4.78753 4.30344 6.16837 6.00679 6.16837Z" fill="#23262F"/>
<path d="M14.4276 12.8181C14.1179 11.9528 13.1617 11.4983 12.293 11.8114C10.899 12.3131 8.99666 12.7373 7.83167 11.9393C7.30305 11.5757 6.97645 10.9865 6.7778 10.4174C7.13807 9.13798 6.53874 7.74404 5.29631 7.15481C3.9091 6.49487 2.24916 7.0841 1.5926 8.46794C1.43098 8.81138 0 11.9999 0 18.4242C0 19.1851 0.306398 19.8754 0.804716 20.3804L1.25926 31.3973C1.2963 32.2391 1.96297 32.9428 2.82492 32.9966C3.74748 33.0539 4.53873 32.3535 4.59597 31.4343L5.33672 19.5252C5.4815 19.1885 5.5623 18.8181 5.5623 18.4276C5.5623 16.9124 5.65321 15.6296 5.78453 14.5757C5.8283 14.606 5.8687 14.6397 5.91247 14.67C6.92258 15.3737 8.12123 15.7272 9.50171 15.7272C10.6802 15.7272 11.9866 15.4713 13.4209 14.9562C14.2862 14.6397 14.7374 13.6834 14.4276 12.8181Z" fill="#23262F"/>
<path d="M26.0303 0C27.7341 0 29.1145 1.38048 29.1145 3.08418C29.1145 4.78789 27.7341 6.16837 26.0303 6.16837C24.3266 6.16837 22.9462 4.78789 22.9462 3.08418C22.9462 1.38048 24.3266 0 26.0303 0Z" fill="#23262F"/>
<path d="M30.4445 8.46802C29.7846 7.08081 28.128 6.49158 26.7408 7.15489C25.4984 7.74748 24.899 9.13806 25.2593 10.4175C25.0606 10.9865 24.734 11.5758 24.2021 11.9394C23.0371 12.7408 21.1347 12.3131 19.7408 11.8115C18.8721 11.5017 17.9158 11.9529 17.6094 12.8182C17.2997 13.6869 17.7509 14.6398 18.6162 14.9529C20.0505 15.468 21.3569 15.7239 22.5354 15.7239C23.9125 15.7239 25.1145 15.3704 26.128 14.6667C26.1718 14.6364 26.2155 14.6027 26.2559 14.5724C26.3872 15.6263 26.4782 16.9058 26.4782 18.4243C26.4782 18.8149 26.559 19.1852 26.7037 19.5219L27.4445 31.431C27.5017 32.3536 28.293 33.0506 29.2155 32.9933C30.0741 32.9395 30.7442 32.2358 30.7812 31.394L31.2391 20.3771C31.7341 19.8755 32.0438 19.1852 32.0438 18.4209C32.0405 12 30.6095 8.80809 30.4445 8.46802Z" fill="#23262F"/>
<path d="M16.5555 20.1044C16.4544 19.9967 16.2962 19.963 16.1615 20.0203C16.0268 20.0775 15.9393 20.2088 15.9393 20.3603L15.9629 21.5253C15.9629 21.5253 14.2087 22.2896 13.1346 21.0068C12.8618 20.6802 12.6531 20.3401 12.4948 20.0135C12.3804 19.7778 12.1278 19.6465 11.8719 19.6869C11.6161 19.7273 11.4174 19.9327 11.3804 20.1886C11.2423 21.165 11.2996 22.3637 11.9696 23.4445C13.4275 25.7947 16.0605 26.2156 16.0605 26.2156L16.0807 27.2223C16.0841 27.3637 16.1683 27.4917 16.2962 27.5455C16.4241 27.6028 16.5757 27.5758 16.68 27.4816L19.5757 24.825C19.7844 24.6297 19.909 24.3637 19.9191 24.0775C19.9258 23.7947 19.8215 23.5152 19.6228 23.3098L16.5555 20.1044Z" fill="#23262F"/>
<path d="M14.6801 8.7443C14.7811 8.85205 14.9393 8.88235 15.0774 8.82848C15.2154 8.77124 15.3029 8.63656 15.2996 8.49178L15.276 7.32679C15.276 7.32679 17.0302 6.56248 18.1043 7.84531C18.377 8.16854 18.5858 8.51198 18.7474 8.83858C18.8619 9.0709 19.1144 9.20222 19.3703 9.16181C19.6262 9.12141 19.8248 8.91602 19.8619 8.66013C19.9999 7.68369 19.9427 6.48504 19.276 5.40423C17.8181 3.05068 15.1851 2.63317 15.1851 2.63317L15.1649 1.6298C15.1615 1.48839 15.0774 1.36044 14.9494 1.30657C14.8215 1.2527 14.67 1.27627 14.5656 1.37391L11.6733 4.03048C11.4646 4.2224 11.34 4.49176 11.3299 4.78133C11.3198 5.06752 11.4275 5.34362 11.6262 5.54901L14.6801 8.7443Z" fill="#23262F"/>
<path d="M57.412 21.18C55.9987 22.58 54.2787 23.28 52.252 23.28C50.2254 23.28 48.5054 22.58 47.092 21.18C45.692 19.7533 44.992 18.0267 44.992 16C44.992 13.96 45.692 12.24 47.092 10.84C48.5054 9.42667 50.2254 8.72 52.252 8.72C54.2787 8.72 55.9987 9.42667 57.412 10.84C58.8254 12.24 59.532 13.96 59.532 16C59.532 18.04 58.8254 19.7667 57.412 21.18ZM49.032 19.3C49.8854 20.1533 50.9587 20.58 52.252 20.58C53.5454 20.58 54.6187 20.1533 55.472 19.3C56.3387 18.4333 56.772 17.3333 56.772 16C56.772 14.6667 56.3387 13.5667 55.472 12.7C54.6054 11.8333 53.532 11.4 52.252 11.4C50.972 11.4 49.8987 11.8333 49.032 12.7C48.1654 13.5667 47.732 14.6667 47.732 16C47.732 17.3333 48.1654 18.4333 49.032 19.3ZM69.9319 15.74C71.1585 16.4467 71.7719 17.5133 71.7719 18.94C71.7719 20.1267 71.3519 21.1 70.5119 21.86C69.6719 22.62 68.6385 23 67.4119 23H61.4719V9H66.9919C68.1785 9 69.1852 9.37333 70.0119 10.12C70.8385 10.8667 71.2519 11.8067 71.2519 12.94C71.2519 14.1 70.8119 15.0333 69.9319 15.74ZM66.9919 11.58H64.2319V14.66H66.9919C67.4185 14.66 67.7719 14.5133 68.0519 14.22C68.3452 13.9267 68.4919 13.56 68.4919 13.12C68.4919 12.68 68.3519 12.3133 68.0719 12.02C67.7919 11.7267 67.4319 11.58 66.9919 11.58ZM64.2319 20.42H67.4119C67.8785 20.42 68.2652 20.2667 68.5719 19.96C68.8785 19.64 69.0319 19.24 69.0319 18.76C69.0319 18.2933 68.8785 17.9067 68.5719 17.6C68.2652 17.28 67.8785 17.12 67.4119 17.12H64.2319V20.42ZM84.4413 9H87.2813V23H84.5413V13.92L80.6013 20.42H80.2813L76.3413 13.94V23H73.5813V9H76.4213L80.4413 15.62L84.4413 9ZM92.6498 17.22V20.36H98.5498V23H89.8898V9H98.4498V11.64H92.6498V14.62H97.9498V17.22H92.6498ZM108.595 17.54V9H111.355V23H109.255L103.255 14.44V23H100.495V9H102.595L108.595 17.54ZM119.512 15.8L124.892 23H121.712L116.712 16.44V23H113.952V9H116.712V15.18L121.512 9H124.692L119.512 15.8ZM138.609 23H135.609L134.769 20.48H129.189L128.349 23H125.369L130.269 9H133.689L138.609 23ZM131.989 12.18L130.069 17.9H133.909L131.989 12.18Z" fill="#23262F"/>
<line x1="38.5" y1="2.18557e-08" x2="38.5" y2="33" stroke="#23262F"/>
</svg>
