<svg width="48" height="48" viewBox="0 0 48 48" fill="none" xmlns="http://www.w3.org/2000/svg">
	<path fill-rule="evenodd" clip-rule="evenodd" d="M38 24H28V40H38C39.1046 40 40 39.1046 40 38V26C40 24.8954 39.1046 24 38 24ZM24 20V44H38C41.3137 44 44 41.3137 44 38V26C44 22.6863 41.3137 20 38 20H24Z" fill="#315DF7"/>
	<path d="M36 30C36 28.8954 35.1045 28 34 28C32.8954 28 32 28.8954 32 30C32 31.1046 32.8954 32 34 32C35.1045 32 36 31.1046 36 30Z" fill="#315DF7"/>
	<path d="M36 36C36 34.8954 35.1045 34 34 34C32.8954 34 32 34.8954 32 36C32 37.1046 32.8954 38 34 38C35.1045 38 36 37.1046 36 36Z" fill="#315DF7"/>
	<path fill-rule="evenodd" clip-rule="evenodd" d="M10 44C6.68632 44 4.00003 41.3137 4.00003 38V10C4.00003 6.68629 6.68632 4 10 4H22C25.3137 4 28 6.68629 28 10V44H10ZM10 8H22C23.1046 8 24 8.89543 24 10V40H20V38C20 36.8954 19.1046 36 18 36H14C12.8955 36 12 36.8954 12 38V40H10C8.89546 40 8.00003 39.1046 8.00003 38V10C8.00003 8.89543 8.89546 8 10 8Z" fill="#315DF7"/>
	<path d="M18 12C19.1046 12 20 12.8954 20 14C20 15.1046 19.1046 16 18 16H14C12.8954 16 12 15.1046 12 14C12 12.8954 12.8954 12 14 12H18Z" fill="#315DF7"/>
	<path d="M18 20C19.1046 20 20 20.8954 20 22C20 23.1046 19.1046 24 18 24H14C12.8954 24 12 23.1046 12 22C12 20.8954 12.8954 20 14 20H18Z" fill="#315DF7"/>
	<path d="M20 30C20 28.8954 19.1046 28 18 28H14C12.8954 28 12 28.8954 12 30C12 31.1046 12.8954 32 14 32H18C19.1046 32 20 31.1046 20 30Z" fill="#315DF7"/>
</svg>
